<?xml version="1.0" standalone="no"?><!DOCTYPE svg PUBLIC "-//W3C//DTD SVG 1.1//EN" "http://www.w3.org/Graphics/SVG/1.1/DTD/svg11.dtd"><svg t="1758692537447" class="icon" viewBox="0 0 1080 1024" version="1.1" xmlns="http://www.w3.org/2000/svg" p-id="21093" xmlns:xlink="http://www.w3.org/1999/xlink" width="270" height="256"><path d="M767.959469 0.054042a28.442943 28.442943 0 0 1 27.987856 23.323213L796.402412 28.496985V56.939928h113.771773a113.771773 113.771773 0 0 1 113.771773 113.771773v475.281583A226.974687 226.974687 0 0 0 853.288299 568.912907c-46.646427 0-90.050358 14.050814-126.172897 38.17043l1.93412-1.308375v-182.034837h-41.981784l-7.73648 7.793366c-10.808318 10.23946-23.550757 19.568745-38.341088 28.556715-18.431027 10.23946-35.26925 17.407081-51.709271 21.502865v55.293082l14.164586-4.550871c27.589655-9.670601 50.969754-23.550757 69.798983-41.526697v166.561876l0.853288-1.137718A226.5196 226.5196 0 0 0 625.744752 796.456454a226.974687 226.974687 0 0 0 77.080377 170.657659H113.771773a113.771773 113.771773 0 0 1-113.487344-105.23889L0 853.34234V170.711701a113.771773 113.771773 0 0 1 113.771773-113.771773h113.771773V28.496985a28.442943 28.442943 0 0 1 56.4308-5.11973L284.429433 28.496985V56.939928h455.087093V28.496985a28.442943 28.442943 0 0 1 28.442943-28.442943zM418.33881 416.572503c-35.838109 0-65.077454 9.727487-87.604265 30.206406-24.06273 20.478919-37.374027 48.637433-40.38898 84.987514h54.724223l1.251489-9.329285c3.128724-17.919054 10.23946-31.685439 20.763349-41.35604 12.287352-11.263406 29.694433-16.895108 51.766157-16.895108 21.445979 0 38.341088 4.607757 49.604493 14.847217 10.23946 9.727487 15.928048 23.550757 15.928048 41.981784s-6.200562 32.766271-17.407081 42.493757c-11.263406 9.727487-28.158514 14.847216-50.685325 14.847217h-26.167508v41.981784h26.679481l9.95503 0.341315c19.22743 1.25149 34.245304 6.257448 44.826079 15.017874 13.311297 10.23946 19.91006 26.110622 19.91006 47.613487 0 18.431027-6.655649 33.278244-18.943 45.565595-14.335243 13.311297-33.278244 20.478919-56.772115 20.47892-21.502865 0-38.909946-6.143676-52.221244-18.431028-15.359189-13.311297-23.038784-32.254298-24.06273-56.829h-56.317028l1.25149 11.946036c4.778414 35.155478 18.715457 62.403818 41.754241 81.745019 22.526811 18.943 52.676331 28.670487 90.050358 28.670487 38.909946 0 71.22113-11.263406 95.795833-32.766271 23.038784-21.502865 34.814163-49.149406 34.814163-82.939623 0-21.502865-6.143676-39.421919-18.431028-53.245189-11.263406-13.311297-27.646541-23.550757-49.149406-30.206406 39.877006-13.311297 60.355926-40.445865 60.355926-80.379758 0-31.230352-11.20652-55.805055-32.709385-73.724109-22.526811-17.919054-51.766157-26.622595-88.571325-26.622595zM227.543546 113.825815H113.771773a56.885887 56.885887 0 0 0-56.885886 56.885886v113.771773h910.174185V170.711701a56.885887 56.885887 0 0 0-56.885887-56.885886h-113.771773v28.442943a28.442943 28.442943 0 0 1-56.430799 5.11973L739.516526 142.268758V113.825815H284.429433v28.442943a28.442943 28.442943 0 1 1-56.885887 0V113.825815z" fill="#1296db" p-id="21094"></path><path d="M853.288299 625.798794a170.65766 170.65766 0 1 0 0 341.315319 170.65766 170.65766 0 0 0 0-341.315319z m71.22113 178.849227a14.335243 14.335243 0 0 1-14.335244 14.278358h-66.556487a14.221472 14.221472 0 0 1-14.050814-11.661607 14.449015 14.449015 0 0 1-0.568859-4.266441v-90.562332c0-7.850252 6.371219-14.221472 14.221472-14.221471h2.161663c7.850252 0 14.221472 6.371219 14.221472 14.221471v75.772001h50.628439c7.850252 0 14.278358 6.484991 14.278358 14.278358v2.161663z" fill="#1296db" p-id="21095"></path></svg>