<?xml version="1.0" standalone="no"?><!DOCTYPE svg PUBLIC "-//W3C//DTD SVG 1.1//EN" "http://www.w3.org/Graphics/SVG/1.1/DTD/svg11.dtd"><svg t="1758692647028" class="icon" viewBox="0 0 1024 1024" version="1.1" xmlns="http://www.w3.org/2000/svg" p-id="29434" xmlns:xlink="http://www.w3.org/1999/xlink" width="256" height="256"><path d="M0 341.333333h1024v625.777778a56.888889 56.888889 0 0 1-56.888889 56.888889H56.888889a56.888889 56.888889 0 0 1-56.888889-56.888889V341.333333z" fill="#1296db" p-id="29435" data-spm-anchor-id="a313x.search_index.0.i6.3fed3a81xk15Ae" class="selected"></path><path d="M682.666667 455.111111m28.444444 0l113.777778 0q28.444444 0 28.444444 28.444445l0 113.777777q0 28.444444-28.444444 28.444445l-113.777778 0q-28.444444 0-28.444444-28.444445l0-113.777777q0-28.444444 28.444444-28.444445Z" fill="#FFFFFF" p-id="29436"></path><path d="M682.666667 739.555556m28.444444 0l113.777778 0q28.444444 0 28.444444 28.444444l0 113.777778q0 28.444444-28.444444 28.444444l-113.777778 0q-28.444444 0-28.444444-28.444444l0-113.777778q0-28.444444 28.444444-28.444444Z" fill="#FFFFFF" p-id="29437"></path><path d="M398.222222 739.555556m28.444445 0l113.777777 0q28.444444 0 28.444445 28.444444l0 113.777778q0 28.444444-28.444445 28.444444l-113.777777 0q-28.444444 0-28.444445-28.444444l0-113.777778q0-28.444444 28.444445-28.444444Z" fill="#FFFFFF" p-id="29438"></path><path d="M56.888889 0h910.222222a56.888889 56.888889 0 0 1 56.888889 56.888889v170.666667H0V56.888889a56.888889 56.888889 0 0 1 56.888889-56.888889z" fill="#1296db" p-id="29439" data-spm-anchor-id="a313x.search_index.0.i7.3fed3a81xk15Ae" class="selected"></path></svg>