<?xml version="1.0" standalone="no"?><!DOCTYPE svg PUBLIC "-//W3C//DTD SVG 1.1//EN" "http://www.w3.org/Graphics/SVG/1.1/DTD/svg11.dtd"><svg t="1757662398567" class="icon" viewBox="0 0 1024 1024" version="1.1" xmlns="http://www.w3.org/2000/svg" p-id="11500" xmlns:xlink="http://www.w3.org/1999/xlink" width="256" height="256"><path d="M0 0m204.8 0l614.4 0q204.8 0 204.8 204.8l0 614.4q0 204.8-204.8 204.8l-614.4 0q-204.8 0-204.8-204.8l0-614.4q0-204.8 204.8-204.8Z" fill="#3491FA" p-id="11501"></path><path d="M837.8368 756.224c8.6016 0 16.896 3.2768 23.04 9.216a30.976 30.976 0 0 1 0 44.544 33.1264 33.1264 0 0 1-23.04 9.216H186.1632a33.1776 33.1776 0 0 1-23.04-9.216 30.976 30.976 0 0 1-9.5232-22.272c0-8.3968 3.4304-16.384 9.5232-22.272a33.1776 33.1776 0 0 1 23.04-9.216h651.6736zM463.104 204.8c15.0016 0 29.8496 2.8672 43.6736 8.3968 13.824 5.5296 26.4192 13.6704 36.9664 23.9104 10.5984 10.24 18.9952 22.3744 24.7296 35.7888 5.7344 13.312 8.704 27.6992 8.704 42.1888v189.0304c0 29.2352-12.032 57.344-33.4336 77.9776-21.3504 20.6848-50.3808 32.3072-80.64 32.3072-30.208 0-59.2384-11.6224-80.5888-32.256a108.4928 108.4928 0 0 1-33.4336-78.0288V315.0848c0-14.4896 2.9696-28.8256 8.704-42.1888a110.08 110.08 0 0 1 24.6784-35.84c10.5984-10.24 23.1936-18.3296 37.0176-23.8592 13.824-5.5296 28.672-8.3968 43.6224-8.3968z m260.6592 0c15.0016 0 29.8496 2.8672 43.6736 8.3968 13.824 5.5296 26.368 13.6704 36.9664 23.9104 10.5984 10.24 18.9952 22.3744 24.7296 35.7888 5.7344 13.312 8.704 27.6992 8.704 42.1888v189.0304c0 29.2352-12.032 57.344-33.4336 77.9776-21.3504 20.6848-50.3808 32.3072-80.64 32.3072-30.208 0-59.2384-11.6224-80.5888-32.256a108.4928 108.4928 0 0 1-33.4336-78.0288V315.0848c0-14.4896 2.9696-28.8256 8.704-42.1888a110.08 110.08 0 0 1 24.6784-35.84c10.5984-10.24 23.1936-18.3296 37.0176-23.8592 13.824-5.5296 28.672-8.3968 43.6224-8.3968zM251.392 519.8848c8.6528 0 16.896 3.328 23.04 9.216 6.144 5.9392 9.5232 13.9264 9.5232 22.272v31.5392c0 8.3456-3.4304 16.384-9.5232 22.272a33.1776 33.1776 0 0 1-23.04 9.216h-32.5632a33.1776 33.1776 0 0 1-23.04-9.216 30.976 30.976 0 0 1-9.5744-22.272v-31.5392a30.6176 30.6176 0 0 1 9.5744-22.272 32.6144 32.6144 0 0 1 23.04-9.216h32.5632zM463.104 267.776a49.7152 49.7152 0 0 0-34.56 13.824 46.4896 46.4896 0 0 0-14.336 33.4336v189.0304c0 12.544 5.1712 24.576 14.336 33.4336 9.216 8.8576 21.6064 13.824 34.56 13.824a49.7152 49.7152 0 0 0 34.56-13.824 46.4896 46.4896 0 0 0 14.336-33.4336V315.0848c0-12.544-5.12-24.576-14.336-33.4336a49.7152 49.7152 0 0 0-34.56-13.824z m260.6592 0a49.7664 49.7664 0 0 0-34.56 13.824 46.4896 46.4896 0 0 0-14.336 33.4336v189.0304c0 12.544 5.1712 24.576 14.336 33.4336 9.216 8.8576 21.6064 13.824 34.56 13.824a49.7152 49.7152 0 0 0 34.56-13.824 46.4896 46.4896 0 0 0 14.336-33.4336V315.0848c0-12.544-5.12-24.576-14.336-33.4336a49.7152 49.7152 0 0 0-34.56-13.824z" fill="#FFFFFF" p-id="11502"></path></svg>