<?xml version="1.0" standalone="no"?><!DOCTYPE svg PUBLIC "-//W3C//DTD SVG 1.1//EN" "http://www.w3.org/Graphics/SVG/1.1/DTD/svg11.dtd"><svg t="1757662347222" class="icon" viewBox="0 0 1024 1024" version="1.1" xmlns="http://www.w3.org/2000/svg" p-id="9628" xmlns:xlink="http://www.w3.org/1999/xlink" width="256" height="256"><path d="M0 0m204.8 0l614.4 0q204.8 0 204.8 204.8l0 614.4q0 204.8-204.8 204.8l-614.4 0q-204.8 0-204.8-204.8l0-614.4q0-204.8 204.8-204.8Z" fill="#14C9C9" p-id="9629" data-spm-anchor-id="a313x.search_index.0.i2.62fd3a81nr5XW9" class="selected"></path><path d="M637.5424 204.8c17.408 0 31.4368 14.336 31.4368 31.744 0 17.408-14.0288 31.744-31.4368 31.744H305.408c-19.1488 0-37.0688 8.4992-37.12 23.04v431.8208c0 14.4896 17.9712 32.4608 37.12 32.4608h408.064c19.0976 0 42.24-17.92 42.24-32.4608v-113.9712A31.744 31.744 0 0 1 819.2 609.28v114.0224c0 49.4592-51.6096 95.8976-105.728 95.8976h-408.064C251.2384 819.1488 204.8 772.7104 204.8 723.2V291.2768C204.8 241.8688 251.2384 204.8 305.3568 204.8h332.1856z m-148.48 163.84c47.0528 0 72.3456 25.2928 72.3456 72.2432 0 90.368-97.5872 122.88-97.5872 169.8816v7.2192h93.952v39.7824H413.184v-36.1472c3.584-86.7328 101.2224-97.5872 101.2224-180.736 0-25.2928-10.8544-32.512-25.2928-32.512-14.4896 0-25.2928 7.2704-25.2928 28.928v28.8768H416.768V440.832c0-46.9504 25.2928-72.192 72.2944-72.192z m155.4944 0C691.5584 368.64 716.8 393.8816 716.8 440.832v7.2192c0 28.928-10.9056 50.5856-36.1472 57.856 25.2416 10.8032 36.1472 28.8768 36.1472 57.856v21.6576c0 46.9504-25.2928 72.2944-72.2944 72.2944-46.9504 0-72.2944-25.344-72.2944-72.2944v-21.6576h47.0016v25.2928c0 21.6064 10.8544 28.8768 25.2928 28.8768 14.4384 0 25.2928-7.2192 25.2928-32.512v-21.6576c0-25.344-10.8544-36.1472-32.512-36.1472h-14.4896v-39.8336h18.1248c18.0224 0 28.8768-7.2192 28.8768-32.4608V440.832c0-25.2416-10.8544-32.4608-25.2928-32.4608-14.4896 0-25.2928 7.168-25.2928 28.8768v18.0736h-46.9504V440.832c0-46.9504 25.2928-72.192 72.2944-72.192z m-250.624 285.4912h-47.0016V437.248H307.2v-28.8256c39.7312 0 46.9504-18.0736 54.2208-36.1472h32.512v281.856z" fill="#FFFFFF" p-id="9630"></path></svg>