<?xml version="1.0" standalone="no"?><!DOCTYPE svg PUBLIC "-//W3C//DTD SVG 1.1//EN" "http://www.w3.org/Graphics/SVG/1.1/DTD/svg11.dtd"><svg t="1758696343575" class="icon" viewBox="0 0 1024 1024" version="1.1" xmlns="http://www.w3.org/2000/svg" p-id="11245" xmlns:xlink="http://www.w3.org/1999/xlink" width="256" height="256"><path d="M1024.000003 159.992v740.878156c0 42.80106-4.454177 58.365082-12.79936 73.980301a87.240438 87.240438 0 0 1-36.350183 36.298986c-15.615219 8.345183-31.128044 12.79936-73.929104 12.79936H123.129846c-42.80106 0-58.365082-4.454177-73.980301-12.79936a87.240438 87.240438 0 0 1-36.298985-36.350183c-8.345183-15.615219-12.79936-31.128044-12.79936-73.929104V123.078646c0-42.80106 4.454177-58.365082 12.79936-73.980301C21.24694 33.483126 33.534326 21.19574 49.200743 12.79936 64.764764 4.454177 80.277589 0 123.078649 0h740.878156L1024.000003 159.992z" fill="#1296db" p-id="11246" data-spm-anchor-id="a313x.search_index.0.i0.58ed3a81myJFqK" class="selected"></path><path d="M913.208742 159.992H1024.000003L864.008002 0v110.79126c0 27.134643 22.014899 49.20074 49.20074 49.20074z" fill="#FFFFFF" opacity=".5" p-id="11247"></path><path d="M228.391783 350.702465v187.945803c0 32.459177-6.962852 57.136343-21.81011 74.645867-16.536773 18.277486-41.777111 27.032248-75.157842 27.032249-29.489726 0-52.835758-8.498775-68.758162-25.752313-14.181691-14.898455-22.066097-34.455877-23.858007-58.211489l-0.358382-10.444278v-21.144543h68.041398v20.786161c0 23.141243 7.474826 31.844808 25.649918 31.844808 10.39308 0 17.20234-2.815859 21.144542-7.782011 3.686216-4.761362 6.143693-13.055347 6.80926-24.881956l0.255987-7.526024V350.702465H228.391783z m129.375931-5.119744c33.278336 0 59.696215 6.962852 79.100045 21.349332 18.943053 14.028099 30.667267 34.916654 35.019049 61.641718l1.279936 10.239488 1.279936 13.976901H408.094798l-2.252688-9.932303c-2.969452-13.00415-8.19159-22.014899-15.308034-27.134643-6.553272-5.119744-18.226289-7.884406-34.967852-7.884406-14.59127 0-24.881956 1.843108-31.640018 5.529324-6.297285 3.123044-8.908355 7.577221-8.908354 15.359232 0 6.143693 3.225439 10.905055 11.365831 15.205639l2.20149 1.075147 12.184991 4.710164 12.287386 4.249388 36.759762 11.877806 18.277486 6.348482c13.823309 5.119744 24.267587 9.625119 30.923254 13.41373 26.264287 15.666417 39.934003 38.295685 39.934003 66.863856 0 27.237038-10.956252 49.559122-32.510375 65.532724-20.683766 14.898455-49.149543 22.322084-84.373381 22.322084-34.353482 0-61.846508-6.758062-82.069496-20.786161-22.987651-16.127194-36.350182-40.445978-40.138793-72.188391l-0.819159-9.778711-0.767962-13.516124h66.659067l1.587121 10.905055c2.508675 16.741563 7.935603 27.697815 15.871206 33.534323 7.884406 5.631718 21.144543 8.908355 39.678016 8.908355 16.690365 0 29.848108-2.815859 38.39808-7.628419 7.526024-4.505375 10.495475-9.010749 10.495475-14.79606 0-7.116444-3.788611-13.157742-12.082595-18.328684l-4.505375-2.559872-4.095795-1.740713-14.232889-5.119744-13.823309-4.454177-26.622668-8.345183-24.165192-8.140393-12.338583-4.556572-9.471527-3.891005a77.820109 77.820109 0 0 1-6.655667-3.327834c-23.755612-14.232888-35.9918-35.787011-35.9918-63.228838 0-27.339433 11.775411-49.354332 34.507074-64.508775 20.325384-14.284086 45.719314-21.19574 76.284186-21.19574z m259.724614 0c43.159442 0 77.820109 14.232888 103.162842 42.698665 23.960402 26.776261 35.889406 62.102495 35.889405 105.057147 0 42.852257-11.877806 77.820109-35.940603 104.698765-25.39393 28.158592-60.054597 42.289086-103.111644 42.289086-43.210639 0-78.024899-14.335283-103.162842-42.749863-23.80681-26.981051-35.479826-61.846508-35.479826-104.237988 0-42.749863 11.621819-77.615319 35.326234-104.493975 24.984351-28.926554 59.645018-43.261837 103.316434-43.261837z m153.336333 5.119744h62.0001l109.920904 160.350382V350.651267h68.450978v284.657768h-60.924954l-111.40563-162.961452v162.910254h-68.041398V350.702465zM617.492328 408.555572c-23.038848 0-40.087596 7.423629-52.426179 22.475676-12.133793 14.847258-18.175091 35.223839-18.175091 62.307285 0 26.725064 6.092495 47.101645 18.123894 61.948903 11.980201 14.642468 29.336133 22.117294 52.477376 22.117294 23.141243 0 40.292385-7.167642 52.221389-21.144543 12.133793-14.642468 18.431078-35.428629 18.431078-62.972851s-6.348483-48.688766-18.431078-63.587221c-11.775411-14.181691-28.721764-21.144543-52.221389-21.144543z" fill="#FFFFFF" p-id="11248"></path></svg>