<?xml version="1.0" standalone="no"?><!DOCTYPE svg PUBLIC "-//W3C//DTD SVG 1.1//EN" "http://www.w3.org/Graphics/SVG/1.1/DTD/svg11.dtd"><svg t="1758692874676" class="icon" viewBox="0 0 1024 1024" version="1.1" xmlns="http://www.w3.org/2000/svg" p-id="46155" xmlns:xlink="http://www.w3.org/1999/xlink" width="256" height="256"><path d="M896 0H128C57.6 0 0 57.6 0 128v768c0 70.4 57.6 128 128 128h768c70.4 0 128-57.6 128-128V128c0-70.4-57.6-128-128-128zM588.8 716.8l-64 64c-70.4 76.8-192 70.4-268.8-6.4-76.8-76.8-76.8-198.4-6.4-268.8l64-64c12.8-19.2 44.8-19.2 64 0 19.2 12.8 19.2 44.8 0 64l-64 64c-32 38.4-32 96 6.4 134.4s96 44.8 140.8 12.8l64-64c12.8-19.2 44.8-19.2 64 0 19.2 12.8 19.2 44.8 0 64z m19.2-236.8l-128 128c-12.8 19.2-44.8 19.2-64 0s-19.2-44.8 0-64l128-128c12.8-19.2 44.8-19.2 64 0 19.2 12.8 19.2 44.8 0 64z m172.8 38.4l-70.4 64c-12.8 19.2-44.8 19.2-64 0-19.2-12.8-19.2-44.8 0-64l64-64c32-38.4 32-96-6.4-134.4s-96-44.8-134.4-12.8l-64 64c-12.8 19.2-44.8 19.2-64 0-19.2-12.8-19.2-44.8 0-64l64-64c70.4-70.4 192-70.4 268.8 6.4 76.8 76.8 76.8 198.4 6.4 268.8z" fill="#1296db" p-id="46156" data-spm-anchor-id="a313x.search_index.0.i17.3fed3a81xk15Ae" class="selected"></path><path d="M524.8 652.8l-64 64c-44.8 32-102.4 25.6-140.8-12.8s-38.4-96-6.4-134.4l64-64c19.2-19.2 19.2-51.2 0-64-19.2-19.2-51.2-19.2-64 0l-64 64c-70.4 70.4-70.4 192 6.4 268.8 76.8 76.8 198.4 83.2 268.8 6.4l64-64c19.2-19.2 19.2-51.2 0-64-19.2-19.2-51.2-19.2-64 0z" fill="#FFFFFF" p-id="46157"></path><path d="M544 416l-128 128c-19.2 19.2-19.2 44.8 0 64s51.2 19.2 64 0l128-128c19.2-19.2 19.2-51.2 0-64-19.2-19.2-51.2-19.2-64 0z" fill="#FFFFFF" p-id="46158"></path><path d="M774.4 249.6C697.6 172.8 576 172.8 505.6 243.2l-64 64c-19.2 19.2-19.2 51.2 0 64 19.2 19.2 51.2 19.2 64 0l64-64c38.4-32 96-25.6 134.4 12.8s38.4 96 6.4 134.4l-64 64c-19.2 19.2-19.2 51.2 0 64 19.2 19.2 51.2 19.2 64 0l70.4-64c70.4-70.4 70.4-192-6.4-268.8z" fill="#FFFFFF" p-id="46159"></path></svg>