<?xml version="1.0" standalone="no"?><!DOCTYPE svg PUBLIC "-//W3C//DTD SVG 1.1//EN" "http://www.w3.org/Graphics/SVG/1.1/DTD/svg11.dtd"><svg t="1757662531404" class="icon" viewBox="0 0 1024 1024" version="1.1" xmlns="http://www.w3.org/2000/svg" p-id="18527" xmlns:xlink="http://www.w3.org/1999/xlink" width="256" height="256"><path d="M646.912 292.949333h340.736a16.213333 16.213333 0 0 0 16.213333-16.213333V187.733333a16.213333 16.213333 0 0 0-16.213333-16.213333H646.826667a16.213333 16.213333 0 0 0-16.213334 16.213333v89.002667c0 8.874667 7.338667 16.213333 16.213334 16.213333z m0 202.24h340.736a16.213333 16.213333 0 0 0 16.213333-16.213333V389.973333a16.213333 16.213333 0 0 0-16.213333-16.213333H646.826667a16.213333 16.213333 0 0 0-16.213334 16.213333v89.002667c0 8.874667 7.338667 16.213333 16.213334 16.213333zM49.322667 769.024h938.325333a16.213333 16.213333 0 0 0 16.213333-16.213333V663.978667a16.213333 16.213333 0 0 0-16.213333-16.213334H49.322667a16.213333 16.213333 0 0 0-16.213334 16.213334v88.917333c0 8.96 7.338667 16.213333 16.213334 16.213333z m0 202.24h938.325333a16.213333 16.213333 0 0 0 16.213333-16.213333V866.133333a16.213333 16.213333 0 0 0-16.213333-16.213333H49.322667a16.213333 16.213333 0 0 0-16.213334 16.213333v89.002667c0 8.874667 7.338667 16.213333 16.213334 16.213333zM337.664 537.685333V154.88h165.888a14.933333 14.933333 0 0 0 14.933333-14.933333V68.010667A14.933333 14.933333 0 0 0 503.466667 53.077333H48.042667a14.933333 14.933333 0 0 0-14.933334 14.933334v71.936c0 8.277333 6.741333 14.933333 14.933334 14.933333h166.314666v382.805333c0 8.277333 6.656 14.933333 14.933334 14.933334h93.44a14.933333 14.933333 0 0 0 14.933333-14.933334z" fill="#69C0FF" p-id="18528"></path></svg>