<?xml version="1.0" standalone="no"?><!DOCTYPE svg PUBLIC "-//W3C//DTD SVG 1.1//EN" "http://www.w3.org/Graphics/SVG/1.1/DTD/svg11.dtd"><svg t="1758692771091" class="icon" viewBox="0 0 1024 1024" version="1.1" xmlns="http://www.w3.org/2000/svg" p-id="40436" xmlns:xlink="http://www.w3.org/1999/xlink" width="256" height="256"><path d="M0 0m228.968944 0l566.062112 0q228.968944 0 228.968944 228.968944l0 566.062112q0 228.968944-228.968944 228.968944l-566.062112 0q-228.968944 0-228.968944-228.968944l0-566.062112q0-228.968944 228.968944-228.968944Z" fill="#1296db" p-id="40437" data-spm-anchor-id="a313x.search_index.0.i11.3fed3a81xk15Ae" class="selected"></path><path d="M289.391304 281.759006m-129.113043 0a129.113043 129.113043 0 1 0 258.226087 0 129.113043 129.113043 0 1 0-258.226087 0Z" fill="#FFFFFF" opacity=".5" p-id="40438" data-spm-anchor-id="a313x.search_index.0.i13.3fed3a81xk15Ae" class="selected"></path><path d="M735.880745 281.759006m-129.113043 0a129.113043 129.113043 0 1 0 258.226087 0 129.113043 129.113043 0 1 0-258.226087 0Z" fill="#FFFFFF" opacity=".5" p-id="40439"></path><path d="M508.183851 537.440994m-333.913044 0a333.913043 333.913043 0 1 0 667.826087 0 333.913043 333.913043 0 1 0-667.826087 0Z" fill="#FFFFFF" p-id="40440"></path><path d="M507.547826 286.21118c14.051061 0 25.440994 11.389933 25.440994 25.440994v200.983851h155.190062c14.051061 0 25.440994 11.389933 25.440994 25.440994s-11.389933 25.440994-25.440994 25.440993H507.547826c-14.051061 0-25.440994-11.389933-25.440994-25.440993V311.652174c0-14.051061 11.389933-25.440994 25.440994-25.440994z" fill="#1296db" p-id="40441" data-spm-anchor-id="a313x.search_index.0.i12.3fed3a81xk15Ae" class="selected"></path></svg>